# xmcd
#
# Track frame offsets:
#	150
#	33123
#	67610
#	106225
#	123305
#	142937
#
# Disc length: 2338 seconds
#
# Revision: 1
# Processed by: cddbd v1.5.2PL0 Copyright (c) Steve Scherf et al.
# Submitted via: audiograbber 1.83.01
#
DISCID=3f092006
DTITLE=Grateful Dead - 82-09-11 West Palm Beach Auditorium, West Palm Beach FL
DYEAR=1900
DGENRE=
TTITLE0=Space
TTITLE1=Truckin'
TTITLE2=Stella Blue
TTITLE3=Around and Around
TTITLE4=One More Saturday Night
TTITLE5=It's All Over Now, Baby Blue
EXTD=
EXTT0=
EXTT1=
EXTT2=
EXTT3=
EXTT4=
EXTT5=
PLAYORDER=
